# xmcd
#
# Track frame offsets:
# 150
# 19407
# 37727
# 53647
# 69740
# 90500
# 106230
# 120190
# 132665
# 150055
# 164445
# 180075
# 193075
#
# Disc length: 2800 seconds
#
#
# Revision: 2
# Processed by: cddbd v1.5.1PL0 Copyright (c) Steve Scherf et al.
# Submitted via: FreeRIP 2.92 
#
DISCID=970aee0d
DTITLE=Robério e seus Teclados Volta Amor - Robério e seus teclados Volta Amor
DYEAR=2002
DGENRE=Forró
TTITLE0=Volta amor
TTITLE1=Amor e paixão
TTITLE2=Antes de voltar pra casa
TTITLE3=Só sei amar voce
TTITLE4=Linda
TTITLE5=Ès meu amor(Its for you)
TTITLE6=O de casa o de fora
TTITLE7=Alô
TTITLE8=Ela não esta aqui
TTITLE9=Só tem filé
TTITLE10=Como esquecer de voce
TTITLE11=Mexe que é bom
TTITLE12=Meu talismã
EXTD=
EXTT0=
EXTT1=
EXTT2=
EXTT3=
EXTT4=
EXTT5=
EXTT6=
EXTT7=
EXTT8=
EXTT9=
EXTT10=
EXTT11=
EXTT12=
PLAYORDER=
